<svg xmlns="http://www.w3.org/2000/svg" display="none">
    <symbol id="search" viewBox="0 0 487.95 487.95">
        <g>
            <g>
                <path d="M481.8,453l-140-140.1c27.6-33.1,44.2-75.4,44.2-121.6C386,85.9,299.5,0.2,193.1,0.2S0,86,0,191.4s86.5,191.1,192.9,191.1
			c45.2,0,86.8-15.5,119.8-41.4l140.5,140.5c8.2,8.2,20.4,8.2,28.6,0C490,473.4,490,461.2,481.8,453z M41,191.4
			c0-82.8,68.2-150.1,151.9-150.1s151.9,67.3,151.9,150.1s-68.2,150.1-151.9,150.1S41,274.1,41,191.4z"/>
            </g>
        </g>
    </symbol>

    <symbol id="mail" viewBox="0 0 400 400">
        <g>
            <polygon points="0,127.5 0,274.219 104.8,206.1 	"/>
            <polygon points="400,274.219 400,127.5 295.2,206.1 	"/>
            <polygon points="200,277.5 130.357,225.268 0,310 0,340 400,340 400,310 269.643,225.268 	"/>
            <polygon points="0,90 200,240 400,90 400,60 0,60 	"/>
        </g>
    </symbol>

    <symbol id="fb" viewBox="0 0 310 310">
        <g>
            <path id="XMLID_835_" d="M81.703,165.106h33.981V305c0,2.762,2.238,5,5,5h57.616c2.762,0,5-2.238,5-5V165.765h39.064
		c2.54,0,4.677-1.906,4.967-4.429l5.933-51.502c0.163-1.417-0.286-2.836-1.234-3.899c-0.949-1.064-2.307-1.673-3.732-1.673h-44.996
		V71.978c0-9.732,5.24-14.667,15.576-14.667c1.473,0,29.42,0,29.42,0c2.762,0,5-2.239,5-5V5.037c0-2.762-2.238-5-5-5h-40.545
		C187.467,0.023,186.832,0,185.896,0c-7.035,0-31.488,1.381-50.804,19.151c-21.402,19.692-18.427,43.27-17.716,47.358v37.752H81.703
		c-2.762,0-5,2.238-5,5v50.844C76.703,162.867,78.941,165.106,81.703,165.106z"/>
        </g>
    </symbol>

    <symbol id="clock" viewBox="0 0 83.001 83.001">
        <g>
            <path d="M41.5,0C18.617,0,0.001,18.617,0.001,41.5c0,22.884,18.616,41.501,41.499,41.501C64.383,83.001,83,64.384,83,41.5
		C83,18.617,64.382,0,41.5,0z M41.5,77.001C21.926,77.001,6,61.075,6,41.5S21.925,6,41.5,6C61.075,6,77,21.925,77,41.5
		S61.075,77.001,41.5,77.001z"/>
            <path d="M53.508,45.32c-0.016,0-0.03,0-0.046,0L44.5,45.454V22c0-1.657-1.343-3-3-3s-3,1.343-3,3v26.5
		c0,0.006,0.002,0.012,0.002,0.018c0,0.01-0.002,0.019-0.002,0.027c0.002,0.122,0.025,0.237,0.041,0.354
		c0.01,0.073,0.011,0.148,0.025,0.22c0.027,0.129,0.072,0.249,0.115,0.37c0.022,0.063,0.036,0.129,0.062,0.189
		c0.052,0.123,0.122,0.235,0.189,0.35c0.031,0.051,0.054,0.107,0.087,0.157c0.076,0.111,0.167,0.21,0.257,0.311
		c0.038,0.042,0.069,0.09,0.109,0.131c0.097,0.096,0.206,0.177,0.315,0.26c0.044,0.033,0.083,0.073,0.128,0.104
		c0.118,0.08,0.247,0.143,0.376,0.205c0.045,0.021,0.085,0.051,0.131,0.07c0.15,0.063,0.31,0.107,0.472,0.146
		c0.03,0.007,0.058,0.021,0.089,0.027c0.194,0.039,0.395,0.061,0.601,0.061c0.015,0,0.031,0,0.046,0l12.008-0.18
		c1.656-0.025,2.979-1.389,2.955-3.045C56.483,46.634,55.144,45.32,53.508,45.32z"/>
        </g>
    </symbol>

    <symbol id="youtube" viewBox="0 0 310 310">
        <g>
            <path id="XMLID_823_" d="M297.917,64.645c-11.19-13.302-31.85-18.728-71.306-18.728H83.386c-40.359,0-61.369,5.776-72.517,19.938
		C0,79.663,0,100.008,0,128.166v53.669c0,54.551,12.896,82.248,83.386,82.248h143.226c34.216,0,53.176-4.788,65.442-16.527
		C304.633,235.518,310,215.863,310,181.835v-53.669C310,98.471,309.159,78.006,297.917,64.645z M199.021,162.41l-65.038,33.991
		c-1.454,0.76-3.044,1.137-4.632,1.137c-1.798,0-3.592-0.484-5.181-1.446c-2.992-1.813-4.819-5.056-4.819-8.554v-67.764
		c0-3.492,1.822-6.732,4.808-8.546c2.987-1.814,6.702-1.938,9.801-0.328l65.038,33.772c3.309,1.718,5.387,5.134,5.392,8.861
		C204.394,157.263,202.325,160.684,199.021,162.41z"/>
        </g>
    </symbol>

    <symbol id="double-arrow" viewBox="0 0 32 32">
        <g>
            <path d="M9.715,16.651L16,10.456l6.285,6.196c0.394,0.391,1.034,0.391,1.428,0c0.394-0.391,0.394-1.024,0-1.414   l-6.999-6.899c-0.379-0.375-1.048-0.377-1.429,0l-6.999,6.9c-0.394,0.39-0.394,1.024,0,1.414   C8.681,17.042,9.321,17.042,9.715,16.651z"/>
            <path
                    d="M16.714,15.338c-0.379-0.375-1.048-0.377-1.429,0l-6.999,6.899c-0.394,0.391-0.394,1.024,0,1.414   c0.394,0.391,1.034,0.391,1.428,0L16,17.456l6.285,6.196c0.394,0.391,1.034,0.391,1.428,0c0.394-0.391,0.394-1.024,0-1.414   L16.714,15.338z"/>
        </g>
    </symbol>

    <symbol id="arrow-left" viewBox="0 0 24 24">
        <path d="M.22,10.22A.75.75,0,0,0,1.28,11.28l5-5a.75.75,0,0,0,0-1.061l-5-5A.75.75,0,0,0,.22,1.28l4.47,4.47Z"
              transform="translate(14.75 17.75) rotate(180)"/>
    </symbol>

    <symbol viewBox="0 0 24 24" id="arrow-right">
        <path d="M.22,10.22A.75.75,0,0,0,1.28,11.28l5-5a.75.75,0,0,0,0-1.061l-5-5A.75.75,0,0,0,.22,1.28l4.47,4.47Z"
              transform="translate(9.25 6.25)"/>
    </symbol>

    <symbol id="telegram" viewBox="0 0 24 24">
        <path d="m20.665 3.717-17.73 6.837c-1.21.486-1.203 1.161-.222 1.462l4.552 1.42 10.532-6.645c.498-.303.953-.14.579.192l-8.533 7.701h-.002l.002.001-.314 4.692c.46 0 .663-.211.921-.46l2.211-2.15 4.599 3.397c.848.467 1.457.227 1.668-.785l3.019-14.228c.309-1.239-.473-1.8-1.282-1.434z"/>
    </symbol>

    <symbol id="phone" viewBox="0 0 1792 1792">
        <path d="M1600 1240q0 27-10 70.5t-21 68.5q-21 50-122 106-94 51-186 51-27 0-52.5-3.5t-57.5-12.5-47.5-14.5-55.5-20.5-49-18q-98-35-175-83-128-79-264.5-215.5t-215.5-264.5q-48-77-83-175-3-9-18-49t-20.5-55.5-14.5-47.5-12.5-57.5-3.5-52.5q0-92 51-186 56-101 106-122 25-11 68.5-21t70.5-10q14 0 21 3 18 6 53 76 11 19 30 54t35 63.5 31 53.5q3 4 17.5 25t21.5 35.5 7 28.5q0 20-28.5 50t-62 55-62 53-28.5 46q0 9 5 22.5t8.5 20.5 14 24 11.5 19q76 137 174 235t235 174q2 1 19 11.5t24 14 20.5 8.5 22.5 5q18 0 46-28.5t53-62 55-62 50-28.5q14 0 28.5 7t35.5 21.5 25 17.5q25 15 53.5 31t63.5 35 54 30q70 35 76 53 3 7 3 21z"/>
    </symbol>

    <symbol id="fb2" viewBox="0 0 30 30">
        <path d="M24,4H6C4.895,4,4,4.895,4,6v18c0,1.105,0.895,2,2,2h10v-9h-3v-3h3v-1.611C16,9.339,17.486,8,20.021,8 c1.214,0,1.856,0.09,2.16,0.131V11h-1.729C19.376,11,19,11.568,19,12.718V14h3.154l-0.428,3H19v9h5c1.105,0,2-0.895,2-2V6 C26,4.895,25.104,4,24,4z"/>
    </symbol>

    <symbol id="calendar" viewBox="0 0 610.398 610.398">
        <g>
            <g>
                <path d="M159.567,0h-15.329c-1.956,0-3.811,0.411-5.608,0.995c-8.979,2.912-15.616,12.498-15.616,23.997v10.552v27.009v14.052
			c0,2.611,0.435,5.078,1.066,7.44c2.702,10.146,10.653,17.552,20.158,17.552h15.329c11.724,0,21.224-11.188,21.224-24.992V62.553
			V35.544V24.992C180.791,11.188,171.291,0,159.567,0z"/>
                <path d="M461.288,0h-15.329c-11.724,0-21.224,11.188-21.224,24.992v10.552v27.009v14.052c0,13.804,9.5,24.992,21.224,24.992
			h15.329c11.724,0,21.224-11.188,21.224-24.992V62.553V35.544V24.992C482.507,11.188,473.007,0,461.288,0z"/>
                <path d="M539.586,62.553h-37.954v14.052c0,24.327-18.102,44.117-40.349,44.117h-15.329c-22.247,0-40.349-19.79-40.349-44.117
			V62.553H199.916v14.052c0,24.327-18.102,44.117-40.349,44.117h-15.329c-22.248,0-40.349-19.79-40.349-44.117V62.553H70.818
			c-21.066,0-38.15,16.017-38.15,35.764v476.318c0,19.784,17.083,35.764,38.15,35.764h468.763c21.085,0,38.149-15.984,38.149-35.764
			V98.322C577.735,78.575,560.671,62.553,539.586,62.553z M527.757,557.9l-446.502-0.172V173.717h446.502V557.9z"/>
                <path d="M353.017,266.258h117.428c10.193,0,18.437-10.179,18.437-22.759s-8.248-22.759-18.437-22.759H353.017
			c-10.193,0-18.437,10.179-18.437,22.759C334.58,256.074,342.823,266.258,353.017,266.258z"/>
                <path d="M353.017,348.467h117.428c10.193,0,18.437-10.179,18.437-22.759c0-12.579-8.248-22.758-18.437-22.758H353.017
			c-10.193,0-18.437,10.179-18.437,22.758C334.58,338.288,342.823,348.467,353.017,348.467z"/>
                <path d="M353.017,430.676h117.428c10.193,0,18.437-10.18,18.437-22.759s-8.248-22.759-18.437-22.759H353.017
			c-10.193,0-18.437,10.18-18.437,22.759S342.823,430.676,353.017,430.676z"/>
                <path d="M353.017,512.89h117.428c10.193,0,18.437-10.18,18.437-22.759c0-12.58-8.248-22.759-18.437-22.759H353.017
			c-10.193,0-18.437,10.179-18.437,22.759C334.58,502.71,342.823,512.89,353.017,512.89z"/>
                <path d="M145.032,266.258H262.46c10.193,0,18.436-10.179,18.436-22.759s-8.248-22.759-18.436-22.759H145.032
			c-10.194,0-18.437,10.179-18.437,22.759C126.596,256.074,134.838,266.258,145.032,266.258z"/>
                <path d="M145.032,348.467H262.46c10.193,0,18.436-10.179,18.436-22.759c0-12.579-8.248-22.758-18.436-22.758H145.032
			c-10.194,0-18.437,10.179-18.437,22.758C126.596,338.288,134.838,348.467,145.032,348.467z"/>
                <path d="M145.032,430.676H262.46c10.193,0,18.436-10.18,18.436-22.759s-8.248-22.759-18.436-22.759H145.032
			c-10.194,0-18.437,10.18-18.437,22.759S134.838,430.676,145.032,430.676z"/>
                <path d="M145.032,512.89H262.46c10.193,0,18.436-10.18,18.436-22.759c0-12.58-8.248-22.759-18.436-22.759H145.032
			c-10.194,0-18.437,10.179-18.437,22.759C126.596,502.71,134.838,512.89,145.032,512.89z"/>
            </g>
        </g>
    </symbol>

</svg>